<?xml version="1.0" encoding="UTF-8"?>
<svg xmlns="http://www.w3.org/2000/svg" xmlns:xlink="http://www.w3.org/1999/xlink" xmlns:ev="http://www.w3.org/2001/xml-events" version="1.1" baseProfile="full" width="212.0000000px" height="212.0000000px" viewBox="0 0 212.0000000 212.0000000">
<polyline fill="none" stroke="#000000" points="6.000000000,181.0000000 21.00000000,181.0000000 211.0000000,191.0000000 31.00000000,206.0000000 "/>
<polyline fill="none" stroke="#000000" points="6.000000000,181.0000000 21.00000000,161.0000000 191.0000000,191.0000000 31.00000000,206.0000000 "/>
<polyline fill="none" stroke="#000000" points="6.000000000,181.0000000 21.00000000,141.0000000 171.0000000,191.0000000 31.00000000,206.0000000 "/>
<polyline fill="none" stroke="#000000" points="6.000000000,181.0000000 21.00000000,121.0000000 151.0000000,191.0000000 31.00000000,206.0000000 "/>
<polyline fill="none" stroke="#000000" points="6.000000000,181.0000000 21.00000000,101.0000000 131.0000000,191.0000000 31.00000000,206.0000000 "/>
<polyline fill="none" stroke="#000000" points="6.000000000,181.0000000 21.00000000,81.00000000 111.0000000,191.0000000 31.00000000,206.0000000 "/>
<polyline fill="none" stroke="#000000" points="6.000000000,181.0000000 21.00000000,61.00000000 91.00000000,191.0000000 31.00000000,206.0000000 "/>
<polyline fill="none" stroke="#000000" points="6.000000000,181.0000000 21.00000000,41.00000000 71.00000000,191.0000000 31.00000000,206.0000000 "/>
<polyline fill="none" stroke="#000000" points="6.000000000,181.0000000 21.00000000,21.00000000 51.00000000,191.0000000 31.00000000,206.0000000 "/>
<polyline fill="none" stroke="#000000" points="6.000000000,181.0000000 21.00000000,1.000000000 31.00000000,191.0000000 31.00000000,206.0000000 "/>
<rect x="1.000000000" y="173.5000000" width="10.00000000" height="15.00000000" />
<rect x="23.50000000" y="201.0000000" width="15.00000000" height="10.00000000" />
<rect x="1.000000000" y="173.5000000" width="10.00000000" height="15.00000000" />
<rect x="23.50000000" y="201.0000000" width="15.00000000" height="10.00000000" />
<rect x="1.000000000" y="173.5000000" width="10.00000000" height="15.00000000" />
<rect x="23.50000000" y="201.0000000" width="15.00000000" height="10.00000000" />
<rect x="1.000000000" y="173.5000000" width="10.00000000" height="15.00000000" />
<rect x="23.50000000" y="201.0000000" width="15.00000000" height="10.00000000" />
<rect x="1.000000000" y="173.5000000" width="10.00000000" height="15.00000000" />
<rect x="23.50000000" y="201.0000000" width="15.00000000" height="10.00000000" />
<rect x="1.000000000" y="173.5000000" width="10.00000000" height="15.00000000" />
<rect x="23.50000000" y="201.0000000" width="15.00000000" height="10.00000000" />
<rect x="1.000000000" y="173.5000000" width="10.00000000" height="15.00000000" />
<rect x="23.50000000" y="201.0000000" width="15.00000000" height="10.00000000" />
<rect x="1.000000000" y="173.5000000" width="10.00000000" height="15.00000000" />
<rect x="23.50000000" y="201.0000000" width="15.00000000" height="10.00000000" />
<rect x="1.000000000" y="173.5000000" width="10.00000000" height="15.00000000" />
<rect x="23.50000000" y="201.0000000" width="15.00000000" height="10.00000000" />
<rect x="1.000000000" y="173.5000000" width="10.00000000" height="15.00000000" />
<rect x="23.50000000" y="201.0000000" width="15.00000000" height="10.00000000" />
</svg>
