<?xml version="1.0" encoding="UTF-8"?>
<svg xmlns="http://www.w3.org/2000/svg" xmlns:xlink="http://www.w3.org/1999/xlink" xmlns:ev="http://www.w3.org/2001/xml-events" version="1.1" baseProfile="full" width="299.5000000px" height="305.0000000px" viewBox="0 0 299.5000000 305.0000000">
<polyline fill="none" stroke="#000000" points="11.00000000,8.500000000 31.00000000,8.500000000 39.00000000,8.500000000 "/>
<polyline fill="none" stroke="#000000" points="11.00000000,104.5000000 31.00000000,104.5000000 39.00000000,104.5000000 "/>
<polyline fill="none" stroke="#000000" points="137.0000000,8.500000000 157.0000000,8.500000000 165.0000000,8.500000000 "/>
<polyline fill="none" stroke="#000000" points="137.0000000,104.5000000 157.0000000,104.5000000 165.0000000,104.5000000 "/>
<polyline fill="none" stroke="#000000" points="11.00000000,200.5000000 31.00000000,200.5000000 39.00000000,200.5000000 "/>
<polyline fill="none" stroke="#000000" points="137.0000000,200.5000000 157.0000000,200.5000000 165.0000000,200.5000000 "/>
<polyline fill="none" stroke="#000000" points="263.0000000,8.500000000 283.0000000,8.500000000 291.0000000,8.500000000 "/>
<polyline fill="none" stroke="#000000" points="263.0000000,104.5000000 283.0000000,104.5000000 291.0000000,104.5000000 "/>
<polyline fill="none" stroke="#000000" points="263.0000000,200.5000000 283.0000000,200.5000000 291.0000000,200.5000000 "/>
<polyline fill="none" stroke="#000000" points="11.00000000,296.5000000 31.00000000,296.5000000 39.00000000,296.5000000 "/>
<rect x="1.000000000" y="1.000000000" width="10.00000000" height="15.00000000" />
<rect x="31.50000000" y="3.500000000" width="15.00000000" height="10.00000000" />
<rect x="1.000000000" y="97.00000000" width="10.00000000" height="15.00000000" />
<rect x="31.50000000" y="99.50000000" width="15.00000000" height="10.00000000" />
<rect x="127.0000000" y="1.000000000" width="10.00000000" height="15.00000000" />
<rect x="157.5000000" y="3.500000000" width="15.00000000" height="10.00000000" />
<rect x="127.0000000" y="97.00000000" width="10.00000000" height="15.00000000" />
<rect x="157.5000000" y="99.50000000" width="15.00000000" height="10.00000000" />
<rect x="1.000000000" y="193.0000000" width="10.00000000" height="15.00000000" />
<rect x="31.50000000" y="195.5000000" width="15.00000000" height="10.00000000" />
<rect x="127.0000000" y="193.0000000" width="10.00000000" height="15.00000000" />
<rect x="157.5000000" y="195.5000000" width="15.00000000" height="10.00000000" />
<rect x="253.0000000" y="1.000000000" width="10.00000000" height="15.00000000" />
<rect x="283.5000000" y="3.500000000" width="15.00000000" height="10.00000000" />
<rect x="253.0000000" y="97.00000000" width="10.00000000" height="15.00000000" />
<rect x="283.5000000" y="99.50000000" width="15.00000000" height="10.00000000" />
<rect x="253.0000000" y="193.0000000" width="10.00000000" height="15.00000000" />
<rect x="283.5000000" y="195.5000000" width="15.00000000" height="10.00000000" />
<rect x="1.000000000" y="289.0000000" width="10.00000000" height="15.00000000" />
<rect x="31.50000000" y="291.5000000" width="15.00000000" height="10.00000000" />
</svg>
