<?xml version="1.0" encoding="UTF-8"?>
<svg xmlns="http://www.w3.org/2000/svg" xmlns:xlink="http://www.w3.org/1999/xlink" xmlns:ev="http://www.w3.org/2001/xml-events" version="1.1" baseProfile="full" width="3.000000000px" height="3.000000000px" viewBox="0 0 3.000000000 3.000000000">
<line x1="1.500000000" y1="1.500000000" x2="1.500000000" y2="1.500000000" stroke="#000000" />
<line x1="1.500000000" y1="1.500000000" x2="1.500000000" y2="1.500000000" stroke="#000000" />
<line x1="1.500000000" y1="1.500000000" x2="1.500000000" y2="1.500000000" stroke="#000000" />
<line x1="1.500000000" y1="1.500000000" x2="1.500000000" y2="1.500000000" stroke="#000000" />
<line x1="1.500000000" y1="1.500000000" x2="1.500000000" y2="1.500000000" stroke="#000000" />
<line x1="1.500000000" y1="1.500000000" x2="1.500000000" y2="1.500000000" stroke="#000000" />
<line x1="1.500000000" y1="1.500000000" x2="1.500000000" y2="1.500000000" stroke="#000000" />
<line x1="1.500000000" y1="1.500000000" x2="1.500000000" y2="1.500000000" stroke="#000000" />
<line x1="1.500000000" y1="1.500000000" x2="1.500000000" y2="1.500000000" stroke="#000000" />
<line x1="1.500000000" y1="1.500000000" x2="1.500000000" y2="1.500000000" stroke="#000000" />
<line x1="1.500000000" y1="1.500000000" x2="1.500000000" y2="1.500000000" stroke="#000000" />
<line x1="1.500000000" y1="1.500000000" x2="1.500000000" y2="1.500000000" stroke="#000000" />
<line x1="1.500000000" y1="1.500000000" x2="1.500000000" y2="1.500000000" stroke="#000000" />
<line x1="1.500000000" y1="1.500000000" x2="1.500000000" y2="1.500000000" stroke="#000000" />
<line x1="1.500000000" y1="1.500000000" x2="1.500000000" y2="1.500000000" stroke="#000000" />
<line x1="1.500000000" y1="1.500000000" x2="1.500000000" y2="1.500000000" stroke="#000000" />
<line x1="1.500000000" y1="1.500000000" x2="1.500000000" y2="1.500000000" stroke="#000000" />
<line x1="1.500000000" y1="1.500000000" x2="1.500000000" y2="1.500000000" stroke="#000000" />
<line x1="1.500000000" y1="1.500000000" x2="1.500000000" y2="1.500000000" stroke="#000000" />
<line x1="1.500000000" y1="1.500000000" x2="1.500000000" y2="1.500000000" stroke="#000000" />
<line x1="1.500000000" y1="1.500000000" x2="1.500000000" y2="1.500000000" stroke="#000000" />
<line x1="1.500000000" y1="1.500000000" x2="1.500000000" y2="1.500000000" stroke="#000000" />
<line x1="1.500000000" y1="1.500000000" x2="1.500000000" y2="1.500000000" stroke="#000000" />
<line x1="1.500000000" y1="1.500000000" x2="1.500000000" y2="1.500000000" stroke="#000000" />
<line x1="1.500000000" y1="1.500000000" x2="1.500000000" y2="1.500000000" stroke="#000000" />
<line x1="1.500000000" y1="1.500000000" x2="1.500000000" y2="1.500000000" stroke="#000000" />
<line x1="1.500000000" y1="1.500000000" x2="1.500000000" y2="1.500000000" stroke="#000000" />
<line x1="1.500000000" y1="1.500000000" x2="1.500000000" y2="1.500000000" stroke="#000000" />
<line x1="1.500000000" y1="1.500000000" x2="1.500000000" y2="1.500000000" stroke="#000000" />
<line x1="1.500000000" y1="1.500000000" x2="1.500000000" y2="1.500000000" stroke="#000000" />
<line x1="1.500000000" y1="1.500000000" x2="1.500000000" y2="1.500000000" stroke="#000000" />
<line x1="1.500000000" y1="1.500000000" x2="1.500000000" y2="1.500000000" stroke="#000000" />
<line x1="1.500000000" y1="1.500000000" x2="1.500000000" y2="1.500000000" stroke="#000000" />
<line x1="1.500000000" y1="1.500000000" x2="1.500000000" y2="1.500000000" stroke="#000000" />
<line x1="1.500000000" y1="1.500000000" x2="1.500000000" y2="1.500000000" stroke="#000000" />
<line x1="1.500000000" y1="1.500000000" x2="1.500000000" y2="1.500000000" stroke="#000000" />
<line x1="1.500000000" y1="1.500000000" x2="1.500000000" y2="1.500000000" stroke="#000000" />
<line x1="1.500000000" y1="1.500000000" x2="1.500000000" y2="1.500000000" stroke="#000000" />
<line x1="1.500000000" y1="1.500000000" x2="1.500000000" y2="1.500000000" stroke="#000000" />
<line x1="1.500000000" y1="1.500000000" x2="1.500000000" y2="1.500000000" stroke="#000000" />
<line x1="1.500000000" y1="1.500000000" x2="1.500000000" y2="1.500000000" stroke="#000000" />
<line x1="1.500000000" y1="1.500000000" x2="1.500000000" y2="1.500000000" stroke="#000000" />
<line x1="1.500000000" y1="1.500000000" x2="1.500000000" y2="1.500000000" stroke="#000000" />
<line x1="1.500000000" y1="1.500000000" x2="1.500000000" y2="1.500000000" stroke="#000000" />
<line x1="1.500000000" y1="1.500000000" x2="1.500000000" y2="1.500000000" stroke="#000000" />
<line x1="1.500000000" y1="1.500000000" x2="1.500000000" y2="1.500000000" stroke="#000000" />
<line x1="1.500000000" y1="1.500000000" x2="1.500000000" y2="1.500000000" stroke="#000000" />
<line x1="1.500000000" y1="1.500000000" x2="1.500000000" y2="1.500000000" stroke="#000000" />
<line x1="1.500000000" y1="1.500000000" x2="1.500000000" y2="1.500000000" stroke="#000000" />
<line x1="1.500000000" y1="1.500000000" x2="1.500000000" y2="1.500000000" stroke="#000000" />
<line x1="1.500000000" y1="1.500000000" x2="1.500000000" y2="1.500000000" stroke="#000000" />
<line x1="1.500000000" y1="1.500000000" x2="1.500000000" y2="1.500000000" stroke="#000000" />
<line x1="1.500000000" y1="1.500000000" x2="1.500000000" y2="1.500000000" stroke="#000000" />
<line x1="1.500000000" y1="1.500000000" x2="1.500000000" y2="1.500000000" stroke="#000000" />
<line x1="1.500000000" y1="1.500000000" x2="1.500000000" y2="1.500000000" stroke="#000000" />
<line x1="1.500000000" y1="1.500000000" x2="1.500000000" y2="1.500000000" stroke="#000000" />
<line x1="1.500000000" y1="1.500000000" x2="1.500000000" y2="1.500000000" stroke="#000000" />
<line x1="1.500000000" y1="1.500000000" x2="1.500000000" y2="1.500000000" stroke="#000000" />
<line x1="1.500000000" y1="1.500000000" x2="1.500000000" y2="1.500000000" stroke="#000000" />
<line x1="1.500000000" y1="1.500000000" x2="1.500000000" y2="1.500000000" stroke="#000000" />
<line x1="1.500000000" y1="1.500000000" x2="1.500000000" y2="1.500000000" stroke="#000000" />
<line x1="1.500000000" y1="1.500000000" x2="1.500000000" y2="1.500000000" stroke="#000000" />
<line x1="1.500000000" y1="1.500000000" x2="1.500000000" y2="1.500000000" stroke="#000000" />
<line x1="1.500000000" y1="1.500000000" x2="1.500000000" y2="1.500000000" stroke="#000000" />
<line x1="1.500000000" y1="1.500000000" x2="1.500000000" y2="1.500000000" stroke="#000000" />
<line x1="1.500000000" y1="1.500000000" x2="1.500000000" y2="1.500000000" stroke="#000000" />
<line x1="1.500000000" y1="1.500000000" x2="1.500000000" y2="1.500000000" stroke="#000000" />
<line x1="1.500000000" y1="1.500000000" x2="1.500000000" y2="1.500000000" stroke="#000000" />
<line x1="1.500000000" y1="1.500000000" x2="1.500000000" y2="1.500000000" stroke="#000000" />
<line x1="1.500000000" y1="1.500000000" x2="1.500000000" y2="1.500000000" stroke="#000000" />
<line x1="1.500000000" y1="1.500000000" x2="1.500000000" y2="1.500000000" stroke="#000000" />
<line x1="1.500000000" y1="1.500000000" x2="1.500000000" y2="1.500000000" stroke="#000000" />
<line x1="1.500000000" y1="1.500000000" x2="1.500000000" y2="1.500000000" stroke="#000000" />
<line x1="1.500000000" y1="1.500000000" x2="1.500000000" y2="1.500000000" stroke="#000000" />
<line x1="1.500000000" y1="1.500000000" x2="1.500000000" y2="1.500000000" stroke="#000000" />
<line x1="1.500000000" y1="1.500000000" x2="1.500000000" y2="1.500000000" stroke="#000000" />
<line x1="1.500000000" y1="1.500000000" x2="1.500000000" y2="1.500000000" stroke="#000000" />
<line x1="1.500000000" y1="1.500000000" x2="1.500000000" y2="1.500000000" stroke="#000000" />
<line x1="1.500000000" y1="1.500000000" x2="1.500000000" y2="1.500000000" stroke="#000000" />
<line x1="1.500000000" y1="1.500000000" x2="1.500000000" y2="1.500000000" stroke="#000000" />
<line x1="1.500000000" y1="1.500000000" x2="1.500000000" y2="1.500000000" stroke="#000000" />
<line x1="1.500000000" y1="1.500000000" x2="1.500000000" y2="1.500000000" stroke="#000000" />
<line x1="1.500000000" y1="1.500000000" x2="1.500000000" y2="1.500000000" stroke="#000000" />
<line x1="1.500000000" y1="1.500000000" x2="1.500000000" y2="1.500000000" stroke="#000000" />
<line x1="1.500000000" y1="1.500000000" x2="1.500000000" y2="1.500000000" stroke="#000000" />
<line x1="1.500000000" y1="1.500000000" x2="1.500000000" y2="1.500000000" stroke="#000000" />
<line x1="1.500000000" y1="1.500000000" x2="1.500000000" y2="1.500000000" stroke="#000000" />
<line x1="1.500000000" y1="1.500000000" x2="1.500000000" y2="1.500000000" stroke="#000000" />
<line x1="1.500000000" y1="1.500000000" x2="1.500000000" y2="1.500000000" stroke="#000000" />
<line x1="1.500000000" y1="1.500000000" x2="1.500000000" y2="1.500000000" stroke="#000000" />
<line x1="1.500000000" y1="1.500000000" x2="1.500000000" y2="1.500000000" stroke="#000000" />
<line x1="1.500000000" y1="1.500000000" x2="1.500000000" y2="1.500000000" stroke="#000000" />
<line x1="1.500000000" y1="1.500000000" x2="1.500000000" y2="1.500000000" stroke="#000000" />
<line x1="1.500000000" y1="1.500000000" x2="1.500000000" y2="1.500000000" stroke="#000000" />
<line x1="1.500000000" y1="1.500000000" x2="1.500000000" y2="1.500000000" stroke="#000000" />
<line x1="1.500000000" y1="1.500000000" x2="1.500000000" y2="1.500000000" stroke="#000000" />
<line x1="1.500000000" y1="1.500000000" x2="1.500000000" y2="1.500000000" stroke="#000000" />
<line x1="1.500000000" y1="1.500000000" x2="1.500000000" y2="1.500000000" stroke="#000000" />
<line x1="1.500000000" y1="1.500000000" x2="1.500000000" y2="1.500000000" stroke="#000000" />
<line x1="1.500000000" y1="1.500000000" x2="1.500000000" y2="1.500000000" stroke="#000000" />
<line x1="1.500000000" y1="1.500000000" x2="1.500000000" y2="1.500000000" stroke="#000000" />
<line x1="1.500000000" y1="1.500000000" x2="1.500000000" y2="1.500000000" stroke="#000000" />
<line x1="1.500000000" y1="1.500000000" x2="1.500000000" y2="1.500000000" stroke="#000000" />
<line x1="1.500000000" y1="1.500000000" x2="1.500000000" y2="1.500000000" stroke="#000000" />
<line x1="1.500000000" y1="1.500000000" x2="1.500000000" y2="1.500000000" stroke="#000000" />
<line x1="1.500000000" y1="1.500000000" x2="1.500000000" y2="1.500000000" stroke="#000000" />
<line x1="1.500000000" y1="1.500000000" x2="1.500000000" y2="1.500000000" stroke="#000000" />
<line x1="1.500000000" y1="1.500000000" x2="1.500000000" y2="1.500000000" stroke="#000000" />
<line x1="1.500000000" y1="1.500000000" x2="1.500000000" y2="1.500000000" stroke="#000000" />
<line x1="1.500000000" y1="1.500000000" x2="1.500000000" y2="1.500000000" stroke="#000000" />
<line x1="1.500000000" y1="1.500000000" x2="1.500000000" y2="1.500000000" stroke="#000000" />
<line x1="1.500000000" y1="1.500000000" x2="1.500000000" y2="1.500000000" stroke="#000000" />
<line x1="1.500000000" y1="1.500000000" x2="1.500000000" y2="1.500000000" stroke="#000000" />
<line x1="1.500000000" y1="1.500000000" x2="1.500000000" y2="1.500000000" stroke="#000000" />
<line x1="1.500000000" y1="1.500000000" x2="1.500000000" y2="1.500000000" stroke="#000000" />
<line x1="1.500000000" y1="1.500000000" x2="1.500000000" y2="1.500000000" stroke="#000000" />
<line x1="1.500000000" y1="1.500000000" x2="1.500000000" y2="1.500000000" stroke="#000000" />
<rect x="1.000000000" y="1.000000000" width="1.000000000" height="1.000000000" />
<rect x="1.000000000" y="1.000000000" width="1.000000000" height="1.000000000" />
<rect x="1.000000000" y="1.000000000" width="1.000000000" height="1.000000000" />
<rect x="1.000000000" y="1.000000000" width="1.000000000" height="1.000000000" />
<rect x="1.000000000" y="1.000000000" width="1.000000000" height="1.000000000" />
<rect x="1.000000000" y="1.000000000" width="1.000000000" height="1.000000000" />
<rect x="1.000000000" y="1.000000000" width="1.000000000" height="1.000000000" />
<rect x="1.000000000" y="1.000000000" width="1.000000000" height="1.000000000" />
<rect x="1.000000000" y="1.000000000" width="1.000000000" height="1.000000000" />
<rect x="1.000000000" y="1.000000000" width="1.000000000" height="1.000000000" />
<rect x="1.000000000" y="1.000000000" width="1.000000000" height="1.000000000" />
<rect x="1.000000000" y="1.000000000" width="1.000000000" height="1.000000000" />
<rect x="1.000000000" y="1.000000000" width="1.000000000" height="1.000000000" />
<rect x="1.000000000" y="1.000000000" width="1.000000000" height="1.000000000" />
<rect x="1.000000000" y="1.000000000" width="1.000000000" height="1.000000000" />
<rect x="1.000000000" y="1.000000000" width="1.000000000" height="1.000000000" />
<rect x="1.000000000" y="1.000000000" width="1.000000000" height="1.000000000" />
<rect x="1.000000000" y="1.000000000" width="1.000000000" height="1.000000000" />
<rect x="1.000000000" y="1.000000000" width="1.000000000" height="1.000000000" />
<rect x="1.000000000" y="1.000000000" width="1.000000000" height="1.000000000" />
<rect x="1.000000000" y="1.000000000" width="1.000000000" height="1.000000000" />
<rect x="1.000000000" y="1.000000000" width="1.000000000" height="1.000000000" />
<rect x="1.000000000" y="1.000000000" width="1.000000000" height="1.000000000" />
<rect x="1.000000000" y="1.000000000" width="1.000000000" height="1.000000000" />
<rect x="1.000000000" y="1.000000000" width="1.000000000" height="1.000000000" />
<rect x="1.000000000" y="1.000000000" width="1.000000000" height="1.000000000" />
<rect x="1.000000000" y="1.000000000" width="1.000000000" height="1.000000000" />
<rect x="1.000000000" y="1.000000000" width="1.000000000" height="1.000000000" />
<rect x="1.000000000" y="1.000000000" width="1.000000000" height="1.000000000" />
<rect x="1.000000000" y="1.000000000" width="1.000000000" height="1.000000000" />
<rect x="1.000000000" y="1.000000000" width="1.000000000" height="1.000000000" />
<rect x="1.000000000" y="1.000000000" width="1.000000000" height="1.000000000" />
<rect x="1.000000000" y="1.000000000" width="1.000000000" height="1.000000000" />
<rect x="1.000000000" y="1.000000000" width="1.000000000" height="1.000000000" />
<rect x="1.000000000" y="1.000000000" width="1.000000000" height="1.000000000" />
<rect x="1.000000000" y="1.000000000" width="1.000000000" height="1.000000000" />
<rect x="1.000000000" y="1.000000000" width="1.000000000" height="1.000000000" />
<rect x="1.000000000" y="1.000000000" width="1.000000000" height="1.000000000" />
<rect x="1.000000000" y="1.000000000" width="1.000000000" height="1.000000000" />
<rect x="1.000000000" y="1.000000000" width="1.000000000" height="1.000000000" />
<rect x="1.000000000" y="1.000000000" width="1.000000000" height="1.000000000" />
<rect x="1.000000000" y="1.000000000" width="1.000000000" height="1.000000000" />
<rect x="1.000000000" y="1.000000000" width="1.000000000" height="1.000000000" />
<rect x="1.000000000" y="1.000000000" width="1.000000000" height="1.000000000" />
<rect x="1.000000000" y="1.000000000" width="1.000000000" height="1.000000000" />
<rect x="1.000000000" y="1.000000000" width="1.000000000" height="1.000000000" />
<rect x="1.000000000" y="1.000000000" width="1.000000000" height="1.000000000" />
<rect x="1.000000000" y="1.000000000" width="1.000000000" height="1.000000000" />
<rect x="1.000000000" y="1.000000000" width="1.000000000" height="1.000000000" />
<rect x="1.000000000" y="1.000000000" width="1.000000000" height="1.000000000" />
<rect x="1.000000000" y="1.000000000" width="1.000000000" height="1.000000000" />
<rect x="1.000000000" y="1.000000000" width="1.000000000" height="1.000000000" />
<rect x="1.000000000" y="1.000000000" width="1.000000000" height="1.000000000" />
<rect x="1.000000000" y="1.000000000" width="1.000000000" height="1.000000000" />
<rect x="1.000000000" y="1.000000000" width="1.000000000" height="1.000000000" />
<rect x="1.000000000" y="1.000000000" width="1.000000000" height="1.000000000" />
<rect x="1.000000000" y="1.000000000" width="1.000000000" height="1.000000000" />
<rect x="1.000000000" y="1.000000000" width="1.000000000" height="1.000000000" />
<rect x="1.000000000" y="1.000000000" width="1.000000000" height="1.000000000" />
<rect x="1.000000000" y="1.000000000" width="1.000000000" height="1.000000000" />
<rect x="1.000000000" y="1.000000000" width="1.000000000" height="1.000000000" />
<rect x="1.000000000" y="1.000000000" width="1.000000000" height="1.000000000" />
<rect x="1.000000000" y="1.000000000" width="1.000000000" height="1.000000000" />
<rect x="1.000000000" y="1.000000000" width="1.000000000" height="1.000000000" />
<rect x="1.000000000" y="1.000000000" width="1.000000000" height="1.000000000" />
<rect x="1.000000000" y="1.000000000" width="1.000000000" height="1.000000000" />
<rect x="1.000000000" y="1.000000000" width="1.000000000" height="1.000000000" />
<rect x="1.000000000" y="1.000000000" width="1.000000000" height="1.000000000" />
<rect x="1.000000000" y="1.000000000" width="1.000000000" height="1.000000000" />
<rect x="1.000000000" y="1.000000000" width="1.000000000" height="1.000000000" />
<rect x="1.000000000" y="1.000000000" width="1.000000000" height="1.000000000" />
<rect x="1.000000000" y="1.000000000" width="1.000000000" height="1.000000000" />
<rect x="1.000000000" y="1.000000000" width="1.000000000" height="1.000000000" />
<rect x="1.000000000" y="1.000000000" width="1.000000000" height="1.000000000" />
<rect x="1.000000000" y="1.000000000" width="1.000000000" height="1.000000000" />
<rect x="1.000000000" y="1.000000000" width="1.000000000" height="1.000000000" />
<rect x="1.000000000" y="1.000000000" width="1.000000000" height="1.000000000" />
<rect x="1.000000000" y="1.000000000" width="1.000000000" height="1.000000000" />
<rect x="1.000000000" y="1.000000000" width="1.000000000" height="1.000000000" />
<rect x="1.000000000" y="1.000000000" width="1.000000000" height="1.000000000" />
<rect x="1.000000000" y="1.000000000" width="1.000000000" height="1.000000000" />
<rect x="1.000000000" y="1.000000000" width="1.000000000" height="1.000000000" />
<rect x="1.000000000" y="1.000000000" width="1.000000000" height="1.000000000" />
<rect x="1.000000000" y="1.000000000" width="1.000000000" height="1.000000000" />
<rect x="1.000000000" y="1.000000000" width="1.000000000" height="1.000000000" />
<rect x="1.000000000" y="1.000000000" width="1.000000000" height="1.000000000" />
<rect x="1.000000000" y="1.000000000" width="1.000000000" height="1.000000000" />
<rect x="1.000000000" y="1.000000000" width="1.000000000" height="1.000000000" />
<rect x="1.000000000" y="1.000000000" width="1.000000000" height="1.000000000" />
<rect x="1.000000000" y="1.000000000" width="1.000000000" height="1.000000000" />
<rect x="1.000000000" y="1.000000000" width="1.000000000" height="1.000000000" />
<rect x="1.000000000" y="1.000000000" width="1.000000000" height="1.000000000" />
<rect x="1.000000000" y="1.000000000" width="1.000000000" height="1.000000000" />
<rect x="1.000000000" y="1.000000000" width="1.000000000" height="1.000000000" />
<rect x="1.000000000" y="1.000000000" width="1.000000000" height="1.000000000" />
<rect x="1.000000000" y="1.000000000" width="1.000000000" height="1.000000000" />
<rect x="1.000000000" y="1.000000000" width="1.000000000" height="1.000000000" />
<rect x="1.000000000" y="1.000000000" width="1.000000000" height="1.000000000" />
<rect x="1.000000000" y="1.000000000" width="1.000000000" height="1.000000000" />
<rect x="1.000000000" y="1.000000000" width="1.000000000" height="1.000000000" />
<rect x="1.000000000" y="1.000000000" width="1.000000000" height="1.000000000" />
<rect x="1.000000000" y="1.000000000" width="1.000000000" height="1.000000000" />
<rect x="1.000000000" y="1.000000000" width="1.000000000" height="1.000000000" />
<rect x="1.000000000" y="1.000000000" width="1.000000000" height="1.000000000" />
<rect x="1.000000000" y="1.000000000" width="1.000000000" height="1.000000000" />
<rect x="1.000000000" y="1.000000000" width="1.000000000" height="1.000000000" />
<rect x="1.000000000" y="1.000000000" width="1.000000000" height="1.000000000" />
<rect x="1.000000000" y="1.000000000" width="1.000000000" height="1.000000000" />
<rect x="1.000000000" y="1.000000000" width="1.000000000" height="1.000000000" />
<rect x="1.000000000" y="1.000000000" width="1.000000000" height="1.000000000" />
<rect x="1.000000000" y="1.000000000" width="1.000000000" height="1.000000000" />
<rect x="1.000000000" y="1.000000000" width="1.000000000" height="1.000000000" />
<rect x="1.000000000" y="1.000000000" width="1.000000000" height="1.000000000" />
<rect x="1.000000000" y="1.000000000" width="1.000000000" height="1.000000000" />
<rect x="1.000000000" y="1.000000000" width="1.000000000" height="1.000000000" />
<rect x="1.000000000" y="1.000000000" width="1.000000000" height="1.000000000" />
<rect x="1.000000000" y="1.000000000" width="1.000000000" height="1.000000000" />
<rect x="1.000000000" y="1.000000000" width="1.000000000" height="1.000000000" />
<rect x="1.000000000" y="1.000000000" width="1.000000000" height="1.000000000" />
<rect x="1.000000000" y="1.000000000" width="1.000000000" height="1.000000000" />
<rect x="1.000000000" y="1.000000000" width="1.000000000" height="1.000000000" />
<rect x="1.000000000" y="1.000000000" width="1.000000000" height="1.000000000" />
</svg>
