<?xml version="1.0" encoding="UTF-8"?>
<svg xmlns="http://www.w3.org/2000/svg" xmlns:xlink="http://www.w3.org/1999/xlink" xmlns:ev="http://www.w3.org/2001/xml-events" version="1.1" baseProfile="full" width="533.5000000px" height="497.0000000px" viewBox="0 0 533.5000000 497.0000000">
<polyline fill="none" stroke="#000000" points="11.00000000,8.500000000 211.0000000,8.500000000 219.0000000,8.500000000 "/>
<polyline fill="none" stroke="#000000" points="11.00000000,104.5000000 211.0000000,104.5000000 219.0000000,104.5000000 "/>
<polyline fill="none" stroke="#000000" points="11.00000000,200.5000000 211.0000000,200.5000000 219.0000000,200.5000000 "/>
<polyline fill="none" stroke="#000000" points="11.00000000,296.5000000 211.0000000,296.5000000 219.0000000,296.5000000 "/>
<polyline fill="none" stroke="#000000" points="11.00000000,392.5000000 211.0000000,392.5000000 219.0000000,392.5000000 "/>
<polyline fill="none" stroke="#000000" points="11.00000000,488.5000000 211.0000000,488.5000000 219.0000000,488.5000000 "/>
<polyline fill="none" stroke="#000000" points="317.0000000,8.500000000 517.0000000,8.500000000 525.0000000,8.500000000 "/>
<polyline fill="none" stroke="#000000" points="317.0000000,104.5000000 517.0000000,104.5000000 525.0000000,104.5000000 "/>
<polyline fill="none" stroke="#000000" points="317.0000000,200.5000000 517.0000000,200.5000000 525.0000000,200.5000000 "/>
<polyline fill="none" stroke="#000000" points="317.0000000,296.5000000 517.0000000,296.5000000 525.0000000,296.5000000 "/>
<rect x="1.000000000" y="1.000000000" width="10.00000000" height="15.00000000" />
<rect x="211.5000000" y="3.500000000" width="15.00000000" height="10.00000000" />
<rect x="1.000000000" y="97.00000000" width="10.00000000" height="15.00000000" />
<rect x="211.5000000" y="99.50000000" width="15.00000000" height="10.00000000" />
<rect x="1.000000000" y="193.0000000" width="10.00000000" height="15.00000000" />
<rect x="211.5000000" y="195.5000000" width="15.00000000" height="10.00000000" />
<rect x="1.000000000" y="289.0000000" width="10.00000000" height="15.00000000" />
<rect x="211.5000000" y="291.5000000" width="15.00000000" height="10.00000000" />
<rect x="1.000000000" y="385.0000000" width="10.00000000" height="15.00000000" />
<rect x="211.5000000" y="387.5000000" width="15.00000000" height="10.00000000" />
<rect x="1.000000000" y="481.0000000" width="10.00000000" height="15.00000000" />
<rect x="211.5000000" y="483.5000000" width="15.00000000" height="10.00000000" />
<rect x="307.0000000" y="1.000000000" width="10.00000000" height="15.00000000" />
<rect x="517.5000000" y="3.500000000" width="15.00000000" height="10.00000000" />
<rect x="307.0000000" y="97.00000000" width="10.00000000" height="15.00000000" />
<rect x="517.5000000" y="99.50000000" width="15.00000000" height="10.00000000" />
<rect x="307.0000000" y="193.0000000" width="10.00000000" height="15.00000000" />
<rect x="517.5000000" y="195.5000000" width="15.00000000" height="10.00000000" />
<rect x="307.0000000" y="289.0000000" width="10.00000000" height="15.00000000" />
<rect x="517.5000000" y="291.5000000" width="15.00000000" height="10.00000000" />
</svg>
