<?xml version="1.0" encoding="UTF-8"?>
<svg xmlns="http://www.w3.org/2000/svg" xmlns:xlink="http://www.w3.org/1999/xlink" xmlns:ev="http://www.w3.org/2001/xml-events" version="1.1" baseProfile="full" width="840.0000000px" height="794.0000000px" viewBox="0 0 840.0000000 794.0000000">
<line x1="361.0000000" y1="192.0000000" x2="383.0000000" y2="180.0000000" stroke="#000000" />
<line x1="361.0000000" y1="192.0000000" x2="378.0000000" y2="167.0000000" stroke="#000000" />
<line x1="361.0000000" y1="192.0000000" x2="346.0000000" y2="219.0000000" stroke="#000000" />
<line x1="378.0000000" y1="167.0000000" x2="399.0000000" y2="158.0000000" stroke="#000000" />
<line x1="378.0000000" y1="167.0000000" x2="396.0000000" y2="149.0000000" stroke="#000000" />
<line x1="396.0000000" y1="149.0000000" x2="406.0000000" y2="135.0000000" stroke="#000000" />
<line x1="346.0000000" y1="219.0000000" x2="330.0000000" y2="250.0000000" stroke="#000000" />
<line x1="330.0000000" y1="250.0000000" x2="354.0000000" y2="238.0000000" stroke="#000000" />
<line x1="330.0000000" y1="250.0000000" x2="336.0000000" y2="277.0000000" stroke="#000000" />
<line x1="330.0000000" y1="250.0000000" x2="307.0000000" y2="276.0000000" stroke="#000000" />
<line x1="336.0000000" y1="277.0000000" x2="322.0000000" y2="301.0000000" stroke="#000000" />
<line x1="307.0000000" y1="276.0000000" x2="289.0000000" y2="257.0000000" stroke="#000000" />
<line x1="307.0000000" y1="276.0000000" x2="261.0000000" y2="255.0000000" stroke="#000000" />
<line x1="322.0000000" y1="301.0000000" x2="309.0000000" y2="317.0000000" stroke="#000000" />
<line x1="322.0000000" y1="301.0000000" x2="298.0000000" y2="315.0000000" stroke="#000000" />
<line x1="291.0000000" y1="229.0000000" x2="276.0000000" y2="211.0000000" stroke="#000000" />
<line x1="291.0000000" y1="229.0000000" x2="305.0000000" y2="208.0000000" stroke="#000000" />
<line x1="261.0000000" y1="255.0000000" x2="235.0000000" y2="263.0000000" stroke="#000000" />
<line x1="261.0000000" y1="255.0000000" x2="217.0000000" y2="257.0000000" stroke="#000000" />
<line x1="235.0000000" y1="263.0000000" x2="221.0000000" y2="240.0000000" stroke="#000000" />
<line x1="217.0000000" y1="257.0000000" x2="193.0000000" y2="267.0000000" stroke="#000000" />
<line x1="217.0000000" y1="257.0000000" x2="175.0000000" y2="255.0000000" stroke="#000000" />
<line x1="175.0000000" y1="255.0000000" x2="152.0000000" y2="263.0000000" stroke="#000000" />
<line x1="175.0000000" y1="255.0000000" x2="135.0000000" y2="250.0000000" stroke="#000000" />
<line x1="135.0000000" y1="250.0000000" x2="105.0000000" y2="235.0000000" stroke="#000000" />
<line x1="135.0000000" y1="250.0000000" x2="102.0000000" y2="257.0000000" stroke="#000000" />
<line x1="105.0000000" y1="235.0000000" x2="79.00000000" y2="227.0000000" stroke="#000000" />
<line x1="105.0000000" y1="235.0000000" x2="81.00000000" y2="215.0000000" stroke="#000000" />
<line x1="79.00000000" y1="227.0000000" x2="60.00000000" y2="209.0000000" stroke="#000000" />
<line x1="102.0000000" y1="257.0000000" x2="73.00000000" y2="258.0000000" stroke="#000000" />
<line x1="73.00000000" y1="258.0000000" x2="48.00000000" y2="257.0000000" stroke="#000000" />
<line x1="48.00000000" y1="257.0000000" x2="25.00000000" y2="242.0000000" stroke="#000000" />
<line x1="81.00000000" y1="215.0000000" x2="64.00000000" y2="194.0000000" stroke="#000000" />
<line x1="289.0000000" y1="257.0000000" x2="291.0000000" y2="229.0000000" stroke="#000000" />
<line x1="219.0000000" y1="179.0000000" x2="193.0000000" y2="167.0000000" stroke="#000000" />
<line x1="219.0000000" y1="179.0000000" x2="203.0000000" y2="143.0000000" stroke="#000000" />
<line x1="193.0000000" y1="167.0000000" x2="168.0000000" y2="172.0000000" stroke="#000000" />
<line x1="193.0000000" y1="167.0000000" x2="166.0000000" y2="163.0000000" stroke="#000000" />
<line x1="166.0000000" y1="163.0000000" x2="147.0000000" y2="163.0000000" stroke="#000000" />
<line x1="203.0000000" y1="143.0000000" x2="180.0000000" y2="128.0000000" stroke="#000000" />
<line x1="203.0000000" y1="143.0000000" x2="184.0000000" y2="111.0000000" stroke="#000000" />
<line x1="184.0000000" y1="111.0000000" x2="160.0000000" y2="100.0000000" stroke="#000000" />
<line x1="184.0000000" y1="111.0000000" x2="166.0000000" y2="84.00000000" stroke="#000000" />
<line x1="166.0000000" y1="84.00000000" x2="140.0000000" y2="73.00000000" stroke="#000000" />
<line x1="166.0000000" y1="84.00000000" x2="152.0000000" y2="59.00000000" stroke="#000000" />
<line x1="140.0000000" y1="73.00000000" x2="126.0000000" y2="62.00000000" stroke="#000000" />
<line x1="152.0000000" y1="59.00000000" x2="171.0000000" y2="41.00000000" stroke="#000000" />
<line x1="152.0000000" y1="59.00000000" x2="132.0000000" y2="39.00000000" stroke="#000000" />
<line x1="132.0000000" y1="39.00000000" x2="124.0000000" y2="21.00000000" stroke="#000000" />
<line x1="124.0000000" y1="21.00000000" x2="117.0000000" y2="6.000000000" stroke="#000000" />
<line x1="388.0000000" y1="334.0000000" x2="426.0000000" y2="362.0000000" stroke="#000000" />
<line x1="426.0000000" y1="362.0000000" x2="466.0000000" y2="391.0000000" stroke="#000000" />
<line x1="466.0000000" y1="391.0000000" x2="445.0000000" y2="406.0000000" stroke="#000000" />
<line x1="466.0000000" y1="391.0000000" x2="498.0000000" y2="427.0000000" stroke="#000000" />
<line x1="445.0000000" y1="406.0000000" x2="438.0000000" y2="431.0000000" stroke="#000000" />
<line x1="498.0000000" y1="427.0000000" x2="511.0000000" y2="443.0000000" stroke="#000000" />
<line x1="498.0000000" y1="427.0000000" x2="532.0000000" y2="462.0000000" stroke="#000000" />
<line x1="511.0000000" y1="443.0000000" x2="520.0000000" y2="418.0000000" stroke="#000000" />
<line x1="532.0000000" y1="462.0000000" x2="535.0000000" y2="489.0000000" stroke="#000000" />
<line x1="532.0000000" y1="462.0000000" x2="514.0000000" y2="488.0000000" stroke="#000000" />
<line x1="514.0000000" y1="488.0000000" x2="507.0000000" y2="515.0000000" stroke="#000000" />
<line x1="507.0000000" y1="515.0000000" x2="501.0000000" y2="539.0000000" stroke="#000000" />
<line x1="501.0000000" y1="539.0000000" x2="496.0000000" y2="556.0000000" stroke="#000000" />
<line x1="496.0000000" y1="556.0000000" x2="490.0000000" y2="571.0000000" stroke="#000000" />
<line x1="610.0000000" y1="520.0000000" x2="603.0000000" y2="548.0000000" stroke="#000000" />
<line x1="610.0000000" y1="520.0000000" x2="644.0000000" y2="499.0000000" stroke="#000000" />
<line x1="610.0000000" y1="520.0000000" x2="634.0000000" y2="559.0000000" stroke="#000000" />
<line x1="603.0000000" y1="548.0000000" x2="594.0000000" y2="573.0000000" stroke="#000000" />
<line x1="594.0000000" y1="573.0000000" x2="581.0000000" y2="591.0000000" stroke="#000000" />
<line x1="581.0000000" y1="591.0000000" x2="575.0000000" y2="605.0000000" stroke="#000000" />
<line x1="644.0000000" y1="499.0000000" x2="673.0000000" y2="506.0000000" stroke="#000000" />
<line x1="644.0000000" y1="499.0000000" x2="671.0000000" y2="473.0000000" stroke="#000000" />
<line x1="673.0000000" y1="506.0000000" x2="695.0000000" y2="520.0000000" stroke="#000000" />
<line x1="695.0000000" y1="520.0000000" x2="710.0000000" y2="522.0000000" stroke="#000000" />
<line x1="671.0000000" y1="473.0000000" x2="706.0000000" y2="465.0000000" stroke="#000000" />
<line x1="671.0000000" y1="473.0000000" x2="655.0000000" y2="445.0000000" stroke="#000000" />
<line x1="706.0000000" y1="465.0000000" x2="739.0000000" y2="463.0000000" stroke="#000000" />
<line x1="739.0000000" y1="463.0000000" x2="753.0000000" y2="447.0000000" stroke="#000000" />
<line x1="739.0000000" y1="463.0000000" x2="769.0000000" y2="461.0000000" stroke="#000000" />
<line x1="769.0000000" y1="461.0000000" x2="796.0000000" y2="462.0000000" stroke="#000000" />
<line x1="796.0000000" y1="462.0000000" x2="813.0000000" y2="443.0000000" stroke="#000000" />
<line x1="796.0000000" y1="462.0000000" x2="817.0000000" y2="477.0000000" stroke="#000000" />
<line x1="813.0000000" y1="443.0000000" x2="829.0000000" y2="439.0000000" stroke="#000000" />
<line x1="817.0000000" y1="477.0000000" x2="834.0000000" y2="485.0000000" stroke="#000000" />
<line x1="655.0000000" y1="445.0000000" x2="628.0000000" y2="426.0000000" stroke="#000000" />
<line x1="628.0000000" y1="426.0000000" x2="645.0000000" y2="413.0000000" stroke="#000000" />
<line x1="628.0000000" y1="426.0000000" x2="599.0000000" y2="409.0000000" stroke="#000000" />
<line x1="599.0000000" y1="409.0000000" x2="617.0000000" y2="395.0000000" stroke="#000000" />
<line x1="599.0000000" y1="409.0000000" x2="568.0000000" y2="397.0000000" stroke="#000000" />
<line x1="568.0000000" y1="397.0000000" x2="587.0000000" y2="381.0000000" stroke="#000000" />
<line x1="568.0000000" y1="397.0000000" x2="534.0000000" y2="388.0000000" stroke="#000000" />
<line x1="534.0000000" y1="388.0000000" x2="500.0000000" y2="385.0000000" stroke="#000000" />
<line x1="534.0000000" y1="388.0000000" x2="549.0000000" y2="369.0000000" stroke="#000000" />
<line x1="549.0000000" y1="369.0000000" x2="557.0000000" y2="353.0000000" stroke="#000000" />
<line x1="634.0000000" y1="559.0000000" x2="659.0000000" y2="576.0000000" stroke="#000000" />
<line x1="659.0000000" y1="576.0000000" x2="684.0000000" y2="592.0000000" stroke="#000000" />
<line x1="684.0000000" y1="592.0000000" x2="702.0000000" y2="610.0000000" stroke="#000000" />
<line x1="702.0000000" y1="610.0000000" x2="716.0000000" y2="621.0000000" stroke="#000000" />
<line x1="669.0000000" y1="634.0000000" x2="658.0000000" y2="661.0000000" stroke="#000000" />
<line x1="669.0000000" y1="634.0000000" x2="693.0000000" y2="663.0000000" stroke="#000000" />
<line x1="658.0000000" y1="661.0000000" x2="641.0000000" y2="681.0000000" stroke="#000000" />
<line x1="641.0000000" y1="681.0000000" x2="634.0000000" y2="695.0000000" stroke="#000000" />
<line x1="693.0000000" y1="663.0000000" x2="689.0000000" y2="689.0000000" stroke="#000000" />
<line x1="693.0000000" y1="663.0000000" x2="716.0000000" y2="690.0000000" stroke="#000000" />
<line x1="689.0000000" y1="689.0000000" x2="670.0000000" y2="707.0000000" stroke="#000000" />
<line x1="716.0000000" y1="690.0000000" x2="735.0000000" y2="717.0000000" stroke="#000000" />
<line x1="716.0000000" y1="690.0000000" x2="720.0000000" y2="715.0000000" stroke="#000000" />
<line x1="735.0000000" y1="717.0000000" x2="752.0000000" y2="741.0000000" stroke="#000000" />
<line x1="752.0000000" y1="741.0000000" x2="758.0000000" y2="754.0000000" stroke="#000000" />
<line x1="752.0000000" y1="741.0000000" x2="766.0000000" y2="759.0000000" stroke="#000000" />
<line x1="766.0000000" y1="759.0000000" x2="778.0000000" y2="776.0000000" stroke="#000000" />
<line x1="778.0000000" y1="776.0000000" x2="788.0000000" y2="788.0000000" stroke="#000000" />
<line x1="240.0000000" y1="216.0000000" x2="219.0000000" y2="179.0000000" stroke="#000000" />
<line x1="356.0000000" y1="168.0000000" x2="361.0000000" y2="192.0000000" stroke="#000000" />
<line x1="348.0000000" y1="306.0000000" x2="388.0000000" y2="334.0000000" stroke="#000000" />
<line x1="572.0000000" y1="491.0000000" x2="610.0000000" y2="520.0000000" stroke="#000000" />
<line x1="651.0000000" y1="597.0000000" x2="669.0000000" y2="634.0000000" stroke="#000000" />
<line x1="307.0000000" y1="276.0000000" x2="348.0000000" y2="306.0000000" stroke="#000000" />
<line x1="261.0000000" y1="255.0000000" x2="240.0000000" y2="216.0000000" stroke="#000000" />
<line x1="532.0000000" y1="462.0000000" x2="572.0000000" y2="491.0000000" stroke="#000000" />
<line x1="535.0000000" y1="489.0000000" x2="559.0000000" y2="484.0000000" stroke="#000000" />
<line x1="634.0000000" y1="559.0000000" x2="651.0000000" y2="597.0000000" stroke="#000000" />
<line x1="374.0000000" y1="150.0000000" x2="356.0000000" y2="168.0000000" stroke="#000000" />
<line x1="25.00000000" y1="242.0000000" x2="6.000000000" y2="224.0000000" stroke="#000000" />
<line x1="716.0000000" y1="621.0000000" x2="730.0000000" y2="631.0000000" stroke="#000000" />
<line x1="466.0000000" y1="391.0000000" x2="500.0000000" y2="385.0000000" stroke="#000000" />
<line x1="701.0000000" y1="733.0000000" x2="720.0000000" y2="715.0000000" stroke="#000000" />
<line x1="720.0000000" y1="715.0000000" x2="745.0000000" y2="721.0000000" stroke="#000000" />
<line x1="374.0000000" y1="150.0000000" x2="356.0000000" y2="168.0000000" stroke="#000000" />
<line x1="336.0000000" y1="277.0000000" x2="322.0000000" y2="301.0000000" stroke="#000000" />
<line x1="135.0000000" y1="250.0000000" x2="105.0000000" y2="235.0000000" stroke="#000000" />
<line x1="572.0000000" y1="491.0000000" x2="610.0000000" y2="520.0000000" stroke="#000000" />
<rect x="356.0000000" y="187.0000000" width="10.00000000" height="10.00000000" />
<rect x="378.0000000" y="175.0000000" width="10.00000000" height="10.00000000" />
<rect x="373.0000000" y="162.0000000" width="10.00000000" height="10.00000000" />
<rect x="341.0000000" y="214.0000000" width="10.00000000" height="10.00000000" />
<rect x="394.0000000" y="153.0000000" width="10.00000000" height="10.00000000" />
<rect x="391.0000000" y="144.0000000" width="10.00000000" height="10.00000000" />
<rect x="401.0000000" y="130.0000000" width="10.00000000" height="10.00000000" />
<rect x="325.0000000" y="245.0000000" width="10.00000000" height="10.00000000" />
<rect x="349.0000000" y="233.0000000" width="10.00000000" height="10.00000000" />
<rect x="331.0000000" y="272.0000000" width="10.00000000" height="10.00000000" />
<rect x="302.0000000" y="271.0000000" width="10.00000000" height="10.00000000" />
<rect x="317.0000000" y="296.0000000" width="10.00000000" height="10.00000000" />
<rect x="284.0000000" y="252.0000000" width="10.00000000" height="10.00000000" />
<rect x="256.0000000" y="250.0000000" width="10.00000000" height="10.00000000" />
<rect x="304.0000000" y="312.0000000" width="10.00000000" height="10.00000000" />
<rect x="293.0000000" y="310.0000000" width="10.00000000" height="10.00000000" />
<rect x="286.0000000" y="224.0000000" width="10.00000000" height="10.00000000" />
<rect x="271.0000000" y="206.0000000" width="10.00000000" height="10.00000000" />
<rect x="300.0000000" y="203.0000000" width="10.00000000" height="10.00000000" />
<rect x="230.0000000" y="258.0000000" width="10.00000000" height="10.00000000" />
<rect x="212.0000000" y="252.0000000" width="10.00000000" height="10.00000000" />
<rect x="216.0000000" y="235.0000000" width="10.00000000" height="10.00000000" />
<rect x="188.0000000" y="262.0000000" width="10.00000000" height="10.00000000" />
<rect x="170.0000000" y="250.0000000" width="10.00000000" height="10.00000000" />
<rect x="147.0000000" y="258.0000000" width="10.00000000" height="10.00000000" />
<rect x="130.0000000" y="245.0000000" width="10.00000000" height="10.00000000" />
<rect x="100.0000000" y="230.0000000" width="10.00000000" height="10.00000000" />
<rect x="97.00000000" y="252.0000000" width="10.00000000" height="10.00000000" />
<rect x="74.00000000" y="222.0000000" width="10.00000000" height="10.00000000" />
<rect x="76.00000000" y="210.0000000" width="10.00000000" height="10.00000000" />
<rect x="55.00000000" y="204.0000000" width="10.00000000" height="10.00000000" />
<rect x="68.00000000" y="253.0000000" width="10.00000000" height="10.00000000" />
<rect x="43.00000000" y="252.0000000" width="10.00000000" height="10.00000000" />
<rect x="20.00000000" y="237.0000000" width="10.00000000" height="10.00000000" />
<rect x="59.00000000" y="189.0000000" width="10.00000000" height="10.00000000" />
<rect x="214.0000000" y="174.0000000" width="10.00000000" height="10.00000000" />
<rect x="188.0000000" y="162.0000000" width="10.00000000" height="10.00000000" />
<rect x="198.0000000" y="138.0000000" width="10.00000000" height="10.00000000" />
<rect x="163.0000000" y="167.0000000" width="10.00000000" height="10.00000000" />
<rect x="161.0000000" y="158.0000000" width="10.00000000" height="10.00000000" />
<rect x="142.0000000" y="158.0000000" width="10.00000000" height="10.00000000" />
<rect x="175.0000000" y="123.0000000" width="10.00000000" height="10.00000000" />
<rect x="179.0000000" y="106.0000000" width="10.00000000" height="10.00000000" />
<rect x="155.0000000" y="95.00000000" width="10.00000000" height="10.00000000" />
<rect x="161.0000000" y="79.00000000" width="10.00000000" height="10.00000000" />
<rect x="135.0000000" y="68.00000000" width="10.00000000" height="10.00000000" />
<rect x="147.0000000" y="54.00000000" width="10.00000000" height="10.00000000" />
<rect x="121.0000000" y="57.00000000" width="10.00000000" height="10.00000000" />
<rect x="166.0000000" y="36.00000000" width="10.00000000" height="10.00000000" />
<rect x="127.0000000" y="34.00000000" width="10.00000000" height="10.00000000" />
<rect x="119.0000000" y="16.00000000" width="10.00000000" height="10.00000000" />
<rect x="112.0000000" y="1.000000000" width="10.00000000" height="10.00000000" />
<rect x="383.0000000" y="329.0000000" width="10.00000000" height="10.00000000" />
<rect x="421.0000000" y="357.0000000" width="10.00000000" height="10.00000000" />
<rect x="461.0000000" y="386.0000000" width="10.00000000" height="10.00000000" />
<rect x="440.0000000" y="401.0000000" width="10.00000000" height="10.00000000" />
<rect x="493.0000000" y="422.0000000" width="10.00000000" height="10.00000000" />
<rect x="433.0000000" y="426.0000000" width="10.00000000" height="10.00000000" />
<rect x="506.0000000" y="438.0000000" width="10.00000000" height="10.00000000" />
<rect x="527.0000000" y="457.0000000" width="10.00000000" height="10.00000000" />
<rect x="515.0000000" y="413.0000000" width="10.00000000" height="10.00000000" />
<rect x="530.0000000" y="484.0000000" width="10.00000000" height="10.00000000" />
<rect x="509.0000000" y="483.0000000" width="10.00000000" height="10.00000000" />
<rect x="502.0000000" y="510.0000000" width="10.00000000" height="10.00000000" />
<rect x="496.0000000" y="534.0000000" width="10.00000000" height="10.00000000" />
<rect x="491.0000000" y="551.0000000" width="10.00000000" height="10.00000000" />
<rect x="485.0000000" y="566.0000000" width="10.00000000" height="10.00000000" />
<rect x="605.0000000" y="515.0000000" width="10.00000000" height="10.00000000" />
<rect x="598.0000000" y="543.0000000" width="10.00000000" height="10.00000000" />
<rect x="639.0000000" y="494.0000000" width="10.00000000" height="10.00000000" />
<rect x="629.0000000" y="554.0000000" width="10.00000000" height="10.00000000" />
<rect x="589.0000000" y="568.0000000" width="10.00000000" height="10.00000000" />
<rect x="576.0000000" y="586.0000000" width="10.00000000" height="10.00000000" />
<rect x="570.0000000" y="600.0000000" width="10.00000000" height="10.00000000" />
<rect x="668.0000000" y="501.0000000" width="10.00000000" height="10.00000000" />
<rect x="666.0000000" y="468.0000000" width="10.00000000" height="10.00000000" />
<rect x="690.0000000" y="515.0000000" width="10.00000000" height="10.00000000" />
<rect x="705.0000000" y="517.0000000" width="10.00000000" height="10.00000000" />
<rect x="701.0000000" y="460.0000000" width="10.00000000" height="10.00000000" />
<rect x="650.0000000" y="440.0000000" width="10.00000000" height="10.00000000" />
<rect x="734.0000000" y="458.0000000" width="10.00000000" height="10.00000000" />
<rect x="748.0000000" y="442.0000000" width="10.00000000" height="10.00000000" />
<rect x="764.0000000" y="456.0000000" width="10.00000000" height="10.00000000" />
<rect x="791.0000000" y="457.0000000" width="10.00000000" height="10.00000000" />
<rect x="808.0000000" y="438.0000000" width="10.00000000" height="10.00000000" />
<rect x="812.0000000" y="472.0000000" width="10.00000000" height="10.00000000" />
<rect x="824.0000000" y="434.0000000" width="10.00000000" height="10.00000000" />
<rect x="829.0000000" y="480.0000000" width="10.00000000" height="10.00000000" />
<rect x="623.0000000" y="421.0000000" width="10.00000000" height="10.00000000" />
<rect x="640.0000000" y="408.0000000" width="10.00000000" height="10.00000000" />
<rect x="594.0000000" y="404.0000000" width="10.00000000" height="10.00000000" />
<rect x="612.0000000" y="390.0000000" width="10.00000000" height="10.00000000" />
<rect x="563.0000000" y="392.0000000" width="10.00000000" height="10.00000000" />
<rect x="582.0000000" y="376.0000000" width="10.00000000" height="10.00000000" />
<rect x="529.0000000" y="383.0000000" width="10.00000000" height="10.00000000" />
<rect x="495.0000000" y="380.0000000" width="10.00000000" height="10.00000000" />
<rect x="544.0000000" y="364.0000000" width="10.00000000" height="10.00000000" />
<rect x="552.0000000" y="348.0000000" width="10.00000000" height="10.00000000" />
<rect x="654.0000000" y="571.0000000" width="10.00000000" height="10.00000000" />
<rect x="679.0000000" y="587.0000000" width="10.00000000" height="10.00000000" />
<rect x="697.0000000" y="605.0000000" width="10.00000000" height="10.00000000" />
<rect x="711.0000000" y="616.0000000" width="10.00000000" height="10.00000000" />
<rect x="664.0000000" y="629.0000000" width="10.00000000" height="10.00000000" />
<rect x="653.0000000" y="656.0000000" width="10.00000000" height="10.00000000" />
<rect x="688.0000000" y="658.0000000" width="10.00000000" height="10.00000000" />
<rect x="636.0000000" y="676.0000000" width="10.00000000" height="10.00000000" />
<rect x="629.0000000" y="690.0000000" width="10.00000000" height="10.00000000" />
<rect x="684.0000000" y="684.0000000" width="10.00000000" height="10.00000000" />
<rect x="711.0000000" y="685.0000000" width="10.00000000" height="10.00000000" />
<rect x="665.0000000" y="702.0000000" width="10.00000000" height="10.00000000" />
<rect x="730.0000000" y="712.0000000" width="10.00000000" height="10.00000000" />
<rect x="715.0000000" y="710.0000000" width="10.00000000" height="10.00000000" />
<rect x="747.0000000" y="736.0000000" width="10.00000000" height="10.00000000" />
<rect x="753.0000000" y="749.0000000" width="10.00000000" height="10.00000000" />
<rect x="761.0000000" y="754.0000000" width="10.00000000" height="10.00000000" />
<rect x="773.0000000" y="771.0000000" width="10.00000000" height="10.00000000" />
<rect x="783.0000000" y="783.0000000" width="10.00000000" height="10.00000000" />
<rect x="235.0000000" y="211.0000000" width="10.00000000" height="10.00000000" />
<rect x="351.0000000" y="163.0000000" width="10.00000000" height="10.00000000" />
<rect x="343.0000000" y="301.0000000" width="10.00000000" height="10.00000000" />
<rect x="567.0000000" y="486.0000000" width="10.00000000" height="10.00000000" />
<rect x="646.0000000" y="592.0000000" width="10.00000000" height="10.00000000" />
<rect x="554.0000000" y="479.0000000" width="10.00000000" height="10.00000000" />
<rect x="369.0000000" y="145.0000000" width="10.00000000" height="10.00000000" />
<rect x="1.000000000" y="219.0000000" width="10.00000000" height="10.00000000" />
<rect x="725.0000000" y="626.0000000" width="10.00000000" height="10.00000000" />
<rect x="696.0000000" y="728.0000000" width="10.00000000" height="10.00000000" />
<rect x="740.0000000" y="716.0000000" width="10.00000000" height="10.00000000" />
</svg>
