<?xml version="1.0" encoding="UTF-8"?>
<svg xmlns="http://www.w3.org/2000/svg" xmlns:xlink="http://www.w3.org/1999/xlink" xmlns:ev="http://www.w3.org/2001/xml-events" version="1.1" baseProfile="full" width="855.0000000px" height="793.0000000px" viewBox="0 0 855.0000000 793.0000000">
<line x1="508.0000000" y1="159.0000000" x2="482.0000000" y2="147.0000000" stroke="#000000" />
<line x1="508.0000000" y1="159.0000000" x2="491.0000000" y2="134.0000000" stroke="#000000" />
<line x1="508.0000000" y1="159.0000000" x2="523.0000000" y2="191.0000000" stroke="#000000" />
<line x1="491.0000000" y1="134.0000000" x2="465.0000000" y2="125.0000000" stroke="#000000" />
<line x1="491.0000000" y1="134.0000000" x2="473.0000000" y2="116.0000000" stroke="#000000" />
<line x1="473.0000000" y1="116.0000000" x2="460.0000000" y2="103.0000000" stroke="#000000" />
<line x1="523.0000000" y1="191.0000000" x2="535.0000000" y2="226.0000000" stroke="#000000" />
<line x1="535.0000000" y1="226.0000000" x2="522.0000000" y2="249.0000000" stroke="#000000" />
<line x1="535.0000000" y1="226.0000000" x2="511.0000000" y2="213.0000000" stroke="#000000" />
<line x1="535.0000000" y1="226.0000000" x2="553.0000000" y2="257.0000000" stroke="#000000" />
<line x1="511.0000000" y1="213.0000000" x2="484.0000000" y2="211.0000000" stroke="#000000" />
<line x1="553.0000000" y1="257.0000000" x2="575.0000000" y2="246.0000000" stroke="#000000" />
<line x1="553.0000000" y1="257.0000000" x2="602.0000000" y2="240.0000000" stroke="#000000" />
<line x1="484.0000000" y1="211.0000000" x2="467.0000000" y2="227.0000000" stroke="#000000" />
<line x1="484.0000000" y1="211.0000000" x2="469.0000000" y2="191.0000000" stroke="#000000" />
<line x1="582.0000000" y1="218.0000000" x2="575.0000000" y2="192.0000000" stroke="#000000" />
<line x1="582.0000000" y1="218.0000000" x2="593.0000000" y2="195.0000000" stroke="#000000" />
<line x1="602.0000000" y1="240.0000000" x2="620.0000000" y2="255.0000000" stroke="#000000" />
<line x1="602.0000000" y1="240.0000000" x2="645.0000000" y2="244.0000000" stroke="#000000" />
<line x1="620.0000000" y1="255.0000000" x2="640.0000000" y2="262.0000000" stroke="#000000" />
<line x1="645.0000000" y1="244.0000000" x2="670.0000000" y2="251.0000000" stroke="#000000" />
<line x1="645.0000000" y1="244.0000000" x2="686.0000000" y2="248.0000000" stroke="#000000" />
<line x1="686.0000000" y1="248.0000000" x2="710.0000000" y2="251.0000000" stroke="#000000" />
<line x1="686.0000000" y1="248.0000000" x2="726.0000000" y2="249.0000000" stroke="#000000" />
<line x1="726.0000000" y1="249.0000000" x2="756.0000000" y2="236.0000000" stroke="#000000" />
<line x1="726.0000000" y1="249.0000000" x2="758.0000000" y2="257.0000000" stroke="#000000" />
<line x1="756.0000000" y1="236.0000000" x2="779.0000000" y2="218.0000000" stroke="#000000" />
<line x1="756.0000000" y1="236.0000000" x2="781.0000000" y2="242.0000000" stroke="#000000" />
<line x1="779.0000000" y1="218.0000000" x2="796.0000000" y2="198.0000000" stroke="#000000" />
<line x1="758.0000000" y1="257.0000000" x2="787.0000000" y2="262.0000000" stroke="#000000" />
<line x1="787.0000000" y1="262.0000000" x2="811.0000000" y2="265.0000000" stroke="#000000" />
<line x1="811.0000000" y1="265.0000000" x2="832.0000000" y2="267.0000000" stroke="#000000" />
<line x1="781.0000000" y1="242.0000000" x2="799.0000000" y2="223.0000000" stroke="#000000" />
<line x1="575.0000000" y1="246.0000000" x2="582.0000000" y2="218.0000000" stroke="#000000" />
<line x1="655.0000000" y1="170.0000000" x2="659.0000000" y2="140.0000000" stroke="#000000" />
<line x1="655.0000000" y1="170.0000000" x2="682.0000000" y2="140.0000000" stroke="#000000" />
<line x1="659.0000000" y1="140.0000000" x2="641.0000000" y2="120.0000000" stroke="#000000" />
<line x1="659.0000000" y1="140.0000000" x2="669.0000000" y2="116.0000000" stroke="#000000" />
<line x1="669.0000000" y1="116.0000000" x2="671.0000000" y2="100.0000000" stroke="#000000" />
<line x1="682.0000000" y1="140.0000000" x2="700.0000000" y2="120.0000000" stroke="#000000" />
<line x1="682.0000000" y1="140.0000000" x2="704.0000000" y2="108.0000000" stroke="#000000" />
<line x1="704.0000000" y1="108.0000000" x2="719.0000000" y2="90.00000000" stroke="#000000" />
<line x1="704.0000000" y1="108.0000000" x2="722.0000000" y2="78.00000000" stroke="#000000" />
<line x1="722.0000000" y1="78.00000000" x2="746.0000000" y2="67.00000000" stroke="#000000" />
<line x1="722.0000000" y1="78.00000000" x2="738.0000000" y2="54.00000000" stroke="#000000" />
<line x1="746.0000000" y1="67.00000000" x2="761.0000000" y2="59.00000000" stroke="#000000" />
<line x1="738.0000000" y1="54.00000000" x2="751.0000000" y2="39.00000000" stroke="#000000" />
<line x1="738.0000000" y1="54.00000000" x2="760.0000000" y2="35.00000000" stroke="#000000" />
<line x1="760.0000000" y1="35.00000000" x2="772.0000000" y2="19.00000000" stroke="#000000" />
<line x1="772.0000000" y1="19.00000000" x2="783.0000000" y2="6.000000000" stroke="#000000" />
<line x1="470.0000000" y1="314.0000000" x2="428.0000000" y2="340.0000000" stroke="#000000" />
<line x1="428.0000000" y1="340.0000000" x2="385.0000000" y2="364.0000000" stroke="#000000" />
<line x1="385.0000000" y1="364.0000000" x2="394.0000000" y2="340.0000000" stroke="#000000" />
<line x1="385.0000000" y1="364.0000000" x2="349.0000000" y2="395.0000000" stroke="#000000" />
<line x1="394.0000000" y1="340.0000000" x2="375.0000000" y2="323.0000000" stroke="#000000" />
<line x1="349.0000000" y1="395.0000000" x2="368.0000000" y2="414.0000000" stroke="#000000" />
<line x1="349.0000000" y1="395.0000000" x2="312.0000000" y2="425.0000000" stroke="#000000" />
<line x1="368.0000000" y1="414.0000000" x2="377.0000000" y2="437.0000000" stroke="#000000" />
<line x1="312.0000000" y1="425.0000000" x2="330.0000000" y2="447.0000000" stroke="#000000" />
<line x1="312.0000000" y1="425.0000000" x2="312.0000000" y2="453.0000000" stroke="#000000" />
<line x1="312.0000000" y1="453.0000000" x2="302.0000000" y2="477.0000000" stroke="#000000" />
<line x1="302.0000000" y1="477.0000000" x2="290.0000000" y2="492.0000000" stroke="#000000" />
<line x1="290.0000000" y1="492.0000000" x2="275.0000000" y2="505.0000000" stroke="#000000" />
<line x1="275.0000000" y1="505.0000000" x2="254.0000000" y2="516.0000000" stroke="#000000" />
<line x1="233.0000000" y1="482.0000000" x2="205.0000000" y2="489.0000000" stroke="#000000" />
<line x1="233.0000000" y1="482.0000000" x2="197.0000000" y2="464.0000000" stroke="#000000" />
<line x1="233.0000000" y1="482.0000000" x2="218.0000000" y2="526.0000000" stroke="#000000" />
<line x1="205.0000000" y1="489.0000000" x2="185.0000000" y2="470.0000000" stroke="#000000" />
<line x1="185.0000000" y1="470.0000000" x2="169.0000000" y2="451.0000000" stroke="#000000" />
<line x1="169.0000000" y1="451.0000000" x2="156.0000000" y2="428.0000000" stroke="#000000" />
<line x1="197.0000000" y1="464.0000000" x2="171.0000000" y2="482.0000000" stroke="#000000" />
<line x1="197.0000000" y1="464.0000000" x2="169.0000000" y2="438.0000000" stroke="#000000" />
<line x1="171.0000000" y1="482.0000000" x2="147.0000000" y2="492.0000000" stroke="#000000" />
<line x1="147.0000000" y1="492.0000000" x2="131.0000000" y2="493.0000000" stroke="#000000" />
<line x1="169.0000000" y1="438.0000000" x2="132.0000000" y2="431.0000000" stroke="#000000" />
<line x1="169.0000000" y1="438.0000000" x2="186.0000000" y2="410.0000000" stroke="#000000" />
<line x1="132.0000000" y1="431.0000000" x2="99.00000000" y2="429.0000000" stroke="#000000" />
<line x1="99.00000000" y1="429.0000000" x2="82.00000000" y2="428.0000000" stroke="#000000" />
<line x1="99.00000000" y1="429.0000000" x2="68.00000000" y2="429.0000000" stroke="#000000" />
<line x1="68.00000000" y1="429.0000000" x2="41.00000000" y2="438.0000000" stroke="#000000" />
<line x1="41.00000000" y1="438.0000000" x2="22.00000000" y2="456.0000000" stroke="#000000" />
<line x1="41.00000000" y1="438.0000000" x2="22.00000000" y2="425.0000000" stroke="#000000" />
<line x1="22.00000000" y1="456.0000000" x2="6.000000000" y2="469.0000000" stroke="#000000" />
<line x1="22.00000000" y1="425.0000000" x2="6.000000000" y2="422.0000000" stroke="#000000" />
<line x1="186.0000000" y1="410.0000000" x2="214.0000000" y2="392.0000000" stroke="#000000" />
<line x1="214.0000000" y1="392.0000000" x2="197.0000000" y2="381.0000000" stroke="#000000" />
<line x1="214.0000000" y1="392.0000000" x2="245.0000000" y2="378.0000000" stroke="#000000" />
<line x1="245.0000000" y1="378.0000000" x2="227.0000000" y2="364.0000000" stroke="#000000" />
<line x1="245.0000000" y1="378.0000000" x2="279.0000000" y2="368.0000000" stroke="#000000" />
<line x1="279.0000000" y1="368.0000000" x2="259.0000000" y2="353.0000000" stroke="#000000" />
<line x1="279.0000000" y1="368.0000000" x2="314.0000000" y2="362.0000000" stroke="#000000" />
<line x1="314.0000000" y1="362.0000000" x2="350.0000000" y2="361.0000000" stroke="#000000" />
<line x1="314.0000000" y1="362.0000000" x2="295.0000000" y2="345.0000000" stroke="#000000" />
<line x1="295.0000000" y1="345.0000000" x2="318.0000000" y2="339.0000000" stroke="#000000" />
<line x1="218.0000000" y1="526.0000000" x2="224.0000000" y2="556.0000000" stroke="#000000" />
<line x1="224.0000000" y1="556.0000000" x2="240.0000000" y2="579.0000000" stroke="#000000" />
<line x1="240.0000000" y1="579.0000000" x2="258.0000000" y2="597.0000000" stroke="#000000" />
<line x1="258.0000000" y1="597.0000000" x2="272.0000000" y2="614.0000000" stroke="#000000" />
<line x1="185.0000000" y1="602.0000000" x2="187.0000000" y2="629.0000000" stroke="#000000" />
<line x1="185.0000000" y1="602.0000000" x2="173.0000000" y2="637.0000000" stroke="#000000" />
<line x1="187.0000000" y1="629.0000000" x2="207.0000000" y2="646.0000000" stroke="#000000" />
<line x1="207.0000000" y1="646.0000000" x2="227.0000000" y2="661.0000000" stroke="#000000" />
<line x1="173.0000000" y1="637.0000000" x2="157.0000000" y2="653.0000000" stroke="#000000" />
<line x1="173.0000000" y1="637.0000000" x2="165.0000000" y2="671.0000000" stroke="#000000" />
<line x1="157.0000000" y1="653.0000000" x2="144.0000000" y2="661.0000000" stroke="#000000" />
<line x1="165.0000000" y1="671.0000000" x2="158.0000000" y2="702.0000000" stroke="#000000" />
<line x1="165.0000000" y1="671.0000000" x2="173.0000000" y2="694.0000000" stroke="#000000" />
<line x1="158.0000000" y1="702.0000000" x2="151.0000000" y2="729.0000000" stroke="#000000" />
<line x1="151.0000000" y1="729.0000000" x2="145.0000000" y2="743.0000000" stroke="#000000" />
<line x1="151.0000000" y1="729.0000000" x2="147.0000000" y2="751.0000000" stroke="#000000" />
<line x1="147.0000000" y1="751.0000000" x2="142.0000000" y2="770.0000000" stroke="#000000" />
<line x1="142.0000000" y1="770.0000000" x2="138.0000000" y2="787.0000000" stroke="#000000" />
<line x1="629.0000000" y1="204.0000000" x2="655.0000000" y2="170.0000000" stroke="#000000" />
<line x1="522.0000000" y1="136.0000000" x2="508.0000000" y2="159.0000000" stroke="#000000" />
<line x1="512.0000000" y1="288.0000000" x2="470.0000000" y2="314.0000000" stroke="#000000" />
<line x1="272.0000000" y1="453.0000000" x2="233.0000000" y2="482.0000000" stroke="#000000" />
<line x1="200.0000000" y1="564.0000000" x2="185.0000000" y2="602.0000000" stroke="#000000" />
<line x1="553.0000000" y1="257.0000000" x2="512.0000000" y2="288.0000000" stroke="#000000" />
<line x1="602.0000000" y1="240.0000000" x2="629.0000000" y2="204.0000000" stroke="#000000" />
<line x1="312.0000000" y1="425.0000000" x2="272.0000000" y2="453.0000000" stroke="#000000" />
<line x1="330.0000000" y1="447.0000000" x2="334.0000000" y2="472.0000000" stroke="#000000" />
<line x1="218.0000000" y1="526.0000000" x2="200.0000000" y2="564.0000000" stroke="#000000" />
<line x1="523.0000000" y1="120.0000000" x2="522.0000000" y2="136.0000000" stroke="#000000" />
<line x1="832.0000000" y1="267.0000000" x2="849.0000000" y2="270.0000000" stroke="#000000" />
<line x1="272.0000000" y1="614.0000000" x2="279.0000000" y2="628.0000000" stroke="#000000" />
<line x1="385.0000000" y1="364.0000000" x2="350.0000000" y2="361.0000000" stroke="#000000" />
<line x1="149.0000000" y1="707.0000000" x2="173.0000000" y2="694.0000000" stroke="#000000" />
<line x1="173.0000000" y1="694.0000000" x2="196.0000000" y2="709.0000000" stroke="#000000" />
<line x1="523.0000000" y1="120.0000000" x2="522.0000000" y2="136.0000000" stroke="#000000" />
<line x1="511.0000000" y1="213.0000000" x2="484.0000000" y2="211.0000000" stroke="#000000" />
<line x1="726.0000000" y1="249.0000000" x2="756.0000000" y2="236.0000000" stroke="#000000" />
<line x1="272.0000000" y1="453.0000000" x2="233.0000000" y2="482.0000000" stroke="#000000" />
<rect x="503.0000000" y="154.0000000" width="10.00000000" height="10.00000000" />
<rect x="477.0000000" y="142.0000000" width="10.00000000" height="10.00000000" />
<rect x="486.0000000" y="129.0000000" width="10.00000000" height="10.00000000" />
<rect x="518.0000000" y="186.0000000" width="10.00000000" height="10.00000000" />
<rect x="460.0000000" y="120.0000000" width="10.00000000" height="10.00000000" />
<rect x="468.0000000" y="111.0000000" width="10.00000000" height="10.00000000" />
<rect x="455.0000000" y="98.00000000" width="10.00000000" height="10.00000000" />
<rect x="530.0000000" y="221.0000000" width="10.00000000" height="10.00000000" />
<rect x="517.0000000" y="244.0000000" width="10.00000000" height="10.00000000" />
<rect x="506.0000000" y="208.0000000" width="10.00000000" height="10.00000000" />
<rect x="548.0000000" y="252.0000000" width="10.00000000" height="10.00000000" />
<rect x="479.0000000" y="206.0000000" width="10.00000000" height="10.00000000" />
<rect x="570.0000000" y="241.0000000" width="10.00000000" height="10.00000000" />
<rect x="597.0000000" y="235.0000000" width="10.00000000" height="10.00000000" />
<rect x="462.0000000" y="222.0000000" width="10.00000000" height="10.00000000" />
<rect x="464.0000000" y="186.0000000" width="10.00000000" height="10.00000000" />
<rect x="577.0000000" y="213.0000000" width="10.00000000" height="10.00000000" />
<rect x="570.0000000" y="187.0000000" width="10.00000000" height="10.00000000" />
<rect x="588.0000000" y="190.0000000" width="10.00000000" height="10.00000000" />
<rect x="615.0000000" y="250.0000000" width="10.00000000" height="10.00000000" />
<rect x="640.0000000" y="239.0000000" width="10.00000000" height="10.00000000" />
<rect x="635.0000000" y="257.0000000" width="10.00000000" height="10.00000000" />
<rect x="665.0000000" y="246.0000000" width="10.00000000" height="10.00000000" />
<rect x="681.0000000" y="243.0000000" width="10.00000000" height="10.00000000" />
<rect x="705.0000000" y="246.0000000" width="10.00000000" height="10.00000000" />
<rect x="721.0000000" y="244.0000000" width="10.00000000" height="10.00000000" />
<rect x="751.0000000" y="231.0000000" width="10.00000000" height="10.00000000" />
<rect x="753.0000000" y="252.0000000" width="10.00000000" height="10.00000000" />
<rect x="774.0000000" y="213.0000000" width="10.00000000" height="10.00000000" />
<rect x="776.0000000" y="237.0000000" width="10.00000000" height="10.00000000" />
<rect x="791.0000000" y="193.0000000" width="10.00000000" height="10.00000000" />
<rect x="782.0000000" y="257.0000000" width="10.00000000" height="10.00000000" />
<rect x="806.0000000" y="260.0000000" width="10.00000000" height="10.00000000" />
<rect x="827.0000000" y="262.0000000" width="10.00000000" height="10.00000000" />
<rect x="794.0000000" y="218.0000000" width="10.00000000" height="10.00000000" />
<rect x="650.0000000" y="165.0000000" width="10.00000000" height="10.00000000" />
<rect x="654.0000000" y="135.0000000" width="10.00000000" height="10.00000000" />
<rect x="677.0000000" y="135.0000000" width="10.00000000" height="10.00000000" />
<rect x="636.0000000" y="115.0000000" width="10.00000000" height="10.00000000" />
<rect x="664.0000000" y="111.0000000" width="10.00000000" height="10.00000000" />
<rect x="666.0000000" y="95.00000000" width="10.00000000" height="10.00000000" />
<rect x="695.0000000" y="115.0000000" width="10.00000000" height="10.00000000" />
<rect x="699.0000000" y="103.0000000" width="10.00000000" height="10.00000000" />
<rect x="714.0000000" y="85.00000000" width="10.00000000" height="10.00000000" />
<rect x="717.0000000" y="73.00000000" width="10.00000000" height="10.00000000" />
<rect x="741.0000000" y="62.00000000" width="10.00000000" height="10.00000000" />
<rect x="733.0000000" y="49.00000000" width="10.00000000" height="10.00000000" />
<rect x="756.0000000" y="54.00000000" width="10.00000000" height="10.00000000" />
<rect x="746.0000000" y="34.00000000" width="10.00000000" height="10.00000000" />
<rect x="755.0000000" y="30.00000000" width="10.00000000" height="10.00000000" />
<rect x="767.0000000" y="14.00000000" width="10.00000000" height="10.00000000" />
<rect x="778.0000000" y="1.000000000" width="10.00000000" height="10.00000000" />
<rect x="465.0000000" y="309.0000000" width="10.00000000" height="10.00000000" />
<rect x="423.0000000" y="335.0000000" width="10.00000000" height="10.00000000" />
<rect x="380.0000000" y="359.0000000" width="10.00000000" height="10.00000000" />
<rect x="389.0000000" y="335.0000000" width="10.00000000" height="10.00000000" />
<rect x="344.0000000" y="390.0000000" width="10.00000000" height="10.00000000" />
<rect x="370.0000000" y="318.0000000" width="10.00000000" height="10.00000000" />
<rect x="363.0000000" y="409.0000000" width="10.00000000" height="10.00000000" />
<rect x="307.0000000" y="420.0000000" width="10.00000000" height="10.00000000" />
<rect x="372.0000000" y="432.0000000" width="10.00000000" height="10.00000000" />
<rect x="325.0000000" y="442.0000000" width="10.00000000" height="10.00000000" />
<rect x="307.0000000" y="448.0000000" width="10.00000000" height="10.00000000" />
<rect x="297.0000000" y="472.0000000" width="10.00000000" height="10.00000000" />
<rect x="285.0000000" y="487.0000000" width="10.00000000" height="10.00000000" />
<rect x="270.0000000" y="500.0000000" width="10.00000000" height="10.00000000" />
<rect x="249.0000000" y="511.0000000" width="10.00000000" height="10.00000000" />
<rect x="228.0000000" y="477.0000000" width="10.00000000" height="10.00000000" />
<rect x="200.0000000" y="484.0000000" width="10.00000000" height="10.00000000" />
<rect x="192.0000000" y="459.0000000" width="10.00000000" height="10.00000000" />
<rect x="213.0000000" y="521.0000000" width="10.00000000" height="10.00000000" />
<rect x="180.0000000" y="465.0000000" width="10.00000000" height="10.00000000" />
<rect x="164.0000000" y="446.0000000" width="10.00000000" height="10.00000000" />
<rect x="151.0000000" y="423.0000000" width="10.00000000" height="10.00000000" />
<rect x="166.0000000" y="477.0000000" width="10.00000000" height="10.00000000" />
<rect x="164.0000000" y="433.0000000" width="10.00000000" height="10.00000000" />
<rect x="142.0000000" y="487.0000000" width="10.00000000" height="10.00000000" />
<rect x="126.0000000" y="488.0000000" width="10.00000000" height="10.00000000" />
<rect x="127.0000000" y="426.0000000" width="10.00000000" height="10.00000000" />
<rect x="181.0000000" y="405.0000000" width="10.00000000" height="10.00000000" />
<rect x="94.00000000" y="424.0000000" width="10.00000000" height="10.00000000" />
<rect x="77.00000000" y="423.0000000" width="10.00000000" height="10.00000000" />
<rect x="63.00000000" y="424.0000000" width="10.00000000" height="10.00000000" />
<rect x="36.00000000" y="433.0000000" width="10.00000000" height="10.00000000" />
<rect x="17.00000000" y="451.0000000" width="10.00000000" height="10.00000000" />
<rect x="17.00000000" y="420.0000000" width="10.00000000" height="10.00000000" />
<rect x="1.000000000" y="464.0000000" width="10.00000000" height="10.00000000" />
<rect x="1.000000000" y="417.0000000" width="10.00000000" height="10.00000000" />
<rect x="209.0000000" y="387.0000000" width="10.00000000" height="10.00000000" />
<rect x="192.0000000" y="376.0000000" width="10.00000000" height="10.00000000" />
<rect x="240.0000000" y="373.0000000" width="10.00000000" height="10.00000000" />
<rect x="222.0000000" y="359.0000000" width="10.00000000" height="10.00000000" />
<rect x="274.0000000" y="363.0000000" width="10.00000000" height="10.00000000" />
<rect x="254.0000000" y="348.0000000" width="10.00000000" height="10.00000000" />
<rect x="309.0000000" y="357.0000000" width="10.00000000" height="10.00000000" />
<rect x="345.0000000" y="356.0000000" width="10.00000000" height="10.00000000" />
<rect x="290.0000000" y="340.0000000" width="10.00000000" height="10.00000000" />
<rect x="313.0000000" y="334.0000000" width="10.00000000" height="10.00000000" />
<rect x="219.0000000" y="551.0000000" width="10.00000000" height="10.00000000" />
<rect x="235.0000000" y="574.0000000" width="10.00000000" height="10.00000000" />
<rect x="253.0000000" y="592.0000000" width="10.00000000" height="10.00000000" />
<rect x="267.0000000" y="609.0000000" width="10.00000000" height="10.00000000" />
<rect x="180.0000000" y="597.0000000" width="10.00000000" height="10.00000000" />
<rect x="182.0000000" y="624.0000000" width="10.00000000" height="10.00000000" />
<rect x="168.0000000" y="632.0000000" width="10.00000000" height="10.00000000" />
<rect x="202.0000000" y="641.0000000" width="10.00000000" height="10.00000000" />
<rect x="222.0000000" y="656.0000000" width="10.00000000" height="10.00000000" />
<rect x="152.0000000" y="648.0000000" width="10.00000000" height="10.00000000" />
<rect x="160.0000000" y="666.0000000" width="10.00000000" height="10.00000000" />
<rect x="139.0000000" y="656.0000000" width="10.00000000" height="10.00000000" />
<rect x="153.0000000" y="697.0000000" width="10.00000000" height="10.00000000" />
<rect x="168.0000000" y="689.0000000" width="10.00000000" height="10.00000000" />
<rect x="146.0000000" y="724.0000000" width="10.00000000" height="10.00000000" />
<rect x="140.0000000" y="738.0000000" width="10.00000000" height="10.00000000" />
<rect x="142.0000000" y="746.0000000" width="10.00000000" height="10.00000000" />
<rect x="137.0000000" y="765.0000000" width="10.00000000" height="10.00000000" />
<rect x="133.0000000" y="782.0000000" width="10.00000000" height="10.00000000" />
<rect x="624.0000000" y="199.0000000" width="10.00000000" height="10.00000000" />
<rect x="517.0000000" y="131.0000000" width="10.00000000" height="10.00000000" />
<rect x="507.0000000" y="283.0000000" width="10.00000000" height="10.00000000" />
<rect x="267.0000000" y="448.0000000" width="10.00000000" height="10.00000000" />
<rect x="195.0000000" y="559.0000000" width="10.00000000" height="10.00000000" />
<rect x="329.0000000" y="467.0000000" width="10.00000000" height="10.00000000" />
<rect x="518.0000000" y="115.0000000" width="10.00000000" height="10.00000000" />
<rect x="844.0000000" y="265.0000000" width="10.00000000" height="10.00000000" />
<rect x="274.0000000" y="623.0000000" width="10.00000000" height="10.00000000" />
<rect x="144.0000000" y="702.0000000" width="10.00000000" height="10.00000000" />
<rect x="191.0000000" y="704.0000000" width="10.00000000" height="10.00000000" />
</svg>
